<svg xmlns="http://www.w3.org/2000/svg" viewBox="0 0 44.851 42.334"><defs><style>.a{fill:none;stroke:#ff9600;stroke-miterlimit:10;stroke-width:21.232px;}.b{fill:#ff9600;}.c{fill:#003e93;}</style></defs><g transform="translate(44.851 8.94)"><path class="a" d="M384.8,76.7" transform="translate(-384.8 -76.7)"/></g><g transform="translate(11.458 14.173)"><path class="b" d="M118.5,147.1h-1.62V131.694a8.474,8.474,0,1,0-16.947,0v15.42H98.3v-15.42a10.094,10.094,0,1,1,20.188,0V147.1Z" transform="translate(-98.3 -121.6)"/></g><path class="c" d="M39.011,19.045A17.716,17.716,0,0,0,28.673,5.42,7.127,7.127,0,0,0,21.761,0h-.408a7.125,7.125,0,0,0-6.912,5.432A17.679,17.679,0,0,0,4.1,19.057,4.427,4.427,0,0,0,0,23.463v9.325a4.449,4.449,0,0,0,3.928,4.406v1.842a3.3,3.3,0,0,0,3.3,3.3H35.888a3.3,3.3,0,0,0,3.3-3.3V37.193a4.432,4.432,0,0,0,3.928-4.406V23.463A4.446,4.446,0,0,0,39.011,19.045ZM21.353,2.914h.408a4.224,4.224,0,0,1,3.054,1.317,17.6,17.6,0,0,0-6.5,0A4.178,4.178,0,0,1,21.353,2.914ZM2.914,32.787V23.463a1.515,1.515,0,0,1,1.014-1.434v12.18A1.489,1.489,0,0,1,2.914,32.787Zm33.358,6.247a.388.388,0,0,1-.385.385H7.227a.388.388,0,0,1-.385-.385V21.563a14.709,14.709,0,1,1,29.419,0V39.035ZM40.2,32.787a1.515,1.515,0,0,1-1.014,1.434V22.041A1.515,1.515,0,0,1,40.2,23.474Z"/></svg>