<svg xmlns="http://www.w3.org/2000/svg" viewBox="0 0 29.15 30.934"><defs><style>.a{fill:#ff9600;}.b{fill:#003e93;}.c{fill:none;stroke:#ff9600;stroke-miterlimit:10;stroke-width:14.07px;}</style></defs><g transform="translate(0 0)"><g transform="translate(0.99 9.477)"><rect class="a" width="27.17" height="1.117"/></g><g transform="translate(0 1.791)"><path class="b" d="M25.625,51.743H3.526A3.529,3.529,0,0,1,0,48.217V26.126A3.534,3.534,0,0,1,3.526,22.6h22.1a3.534,3.534,0,0,1,3.526,3.526v22.1A3.527,3.527,0,0,1,25.625,51.743ZM3.526,24.581a1.542,1.542,0,0,0-1.545,1.545v22.1A1.542,1.542,0,0,0,3.526,49.77h22.1a1.542,1.542,0,0,0,1.545-1.545v-22.1a1.542,1.542,0,0,0-1.545-1.545Z" transform="translate(0 -22.6)"/></g><g transform="translate(5.42 7.551)"><g transform="translate(15.292 17.067)"><rect class="a" width="3.011" height="1.117"/></g><g transform="translate(15.292 13.541)"><rect class="a" width="3.011" height="1.117" transform="translate(0 0)"/></g><g transform="translate(15.292 6.489)"><rect class="a" width="3.011" height="1.117"/></g><g transform="translate(15.292 10.015)"><rect class="a" width="3.011" height="1.117"/></g><g transform="translate(7.369 17.067)"><rect class="a" width="3.011" height="1.117"/></g><g transform="translate(7.369 13.541)"><rect class="a" width="3.011" height="1.117" transform="translate(0 0)"/></g><g transform="translate(7.369 6.489)"><rect class="a" width="3.011" height="1.117"/></g><g transform="translate(7.369 10.015)"><rect class="a" width="3.011" height="1.117"/></g><g transform="translate(0 17.067)"><rect class="a" width="3.011" height="1.117"/></g><g transform="translate(0 13.541)"><rect class="a" width="3.011" height="1.117" transform="translate(0 0)"/></g><g transform="translate(3.011 7.052)"><path class="c" d="M106.4,184.3" transform="translate(-106.4 -184.3)"/></g><g transform="translate(0 7.052)"><path class="c" d="M68.4,184.3" transform="translate(-68.4 -184.3)"/></g><g transform="translate(0 10.015)"><rect class="a" width="3.011" height="1.117"/></g><g transform="translate(3.011 3.526)"><path class="c" d="M106.4,139.8" transform="translate(-106.4 -139.8)"/></g><g transform="translate(0 3.526)"><path class="c" d="M68.4,139.8" transform="translate(-68.4 -139.8)"/></g><g transform="translate(3.011)"><path class="c" d="M106.4,95.3" transform="translate(-106.4 -95.3)"/></g><path class="c" d="M68.4,95.3" transform="translate(-68.4 -95.3)"/></g><g transform="translate(8.145)"><rect class="a" width="1.117" height="6.339"/><g transform="translate(11.743)"><rect class="a" width="1.117" height="6.339"/></g></g></g></svg>