<svg id="Group_50" data-name="Group 50" xmlns="http://www.w3.org/2000/svg" viewBox="0 0 34.045 34.078">
  <defs>
    <style>
      .cls-1 {
        fill: #fff;
      }

      .cls-2 {
        fill: #ff9600;
      }
    </style>
  </defs>
  <path id="Path_78" data-name="Path 78" class="cls-1" d="M28.907,47.235l.02-.02h0c.01-.01.01-.02.02-.031a14.929,14.929,0,0,1,1.125-1.166l.092-.092c.368-.358.675-.654.941-.931a3.792,3.792,0,0,0,1.145-2.649,3.63,3.63,0,0,0-1.176-2.628l-3.917-3.937a3.577,3.577,0,0,0-2.6-1.186,3.723,3.723,0,0,0-2.628,1.176l-2.127,2.117c-.072-.041-.143-.072-.2-.1l-.184-.092a6.928,6.928,0,0,1-.685-.368,24.155,24.155,0,0,1-5.819-5.3,14.563,14.563,0,0,1-1.82-2.822c.481-.45.931-.9,1.37-1.35l.164-.164c.1-.1.2-.2.307-.317s.194-.194.286-.3a3.53,3.53,0,0,0,0-5.3l-1.953-1.953c-.215-.215-.44-.44-.665-.675-.4-.409-.869-.89-1.35-1.329A3.64,3.64,0,0,0,6.675,16.7a3.745,3.745,0,0,0-2.608,1.125l-2.4,2.454A5.487,5.487,0,0,0,.039,23.756a12.818,12.818,0,0,0,.931,5.41,31.133,31.133,0,0,0,5.512,9.193c.675.808,1.381,1.575,2.107,2.3a33.628,33.628,0,0,0,9.173,6.524,17.776,17.776,0,0,0,6.381,1.882c.164.01.317.01.46.01A5.587,5.587,0,0,0,28.907,47.235ZM24.6,46.663a2.973,2.973,0,0,1-.307-.01,15.354,15.354,0,0,1-5.481-1.646A31.482,31.482,0,0,1,8.352,36.815a28.872,28.872,0,0,1-5.1-8.488,10.034,10.034,0,0,1-.787-4.356,3.041,3.041,0,0,1,.91-1.963l2.434-2.434a1.4,1.4,0,0,1,.91-.44,1.289,1.289,0,0,1,.859.43l.031.031c.215.194.419.4.634.614s.419.419.644.654c.112.123.235.235.348.358l.337.337,1.953,1.953a1.372,1.372,0,0,1,.491.931,1.393,1.393,0,0,1-.491.931l-.2.2c-.133.143-.266.276-.409.409-.634.654-1.186,1.2-1.79,1.738l-.051.051a1.708,1.708,0,0,0-.419,1.861l.031.082a16.136,16.136,0,0,0,2.342,3.825l.02.02h0a26.18,26.18,0,0,0,6.391,5.808,8.761,8.761,0,0,0,.9.491l.01.01c.245.123.481.245.675.358l.02.01c.01,0,.01.01.02.01s.041.031.061.041a1.731,1.731,0,0,0,.818.2,1.775,1.775,0,0,0,1.268-.573l2.444-2.444a1.352,1.352,0,0,1,.9-.46,1.237,1.237,0,0,1,.849.44l.02.02,3.937,3.937a1.174,1.174,0,0,1,0,1.882c-.225.245-.46.47-.706.716l-.153.153a18.779,18.779,0,0,0-1.391,1.442A3.232,3.232,0,0,1,24.6,46.663Zm.01.256Z" transform="translate(-0.009 -14.998)"/>
  <path id="Path_79" data-name="Path 79" class="cls-2" d="M174.207,61.987a9.189,9.189,0,0,1,7.486,7.486.964.964,0,0,0,.951.8c.061,0,.1-.01.164-.01a.966.966,0,0,0,.8-1.115,11.093,11.093,0,0,0-9.05-9.05.972.972,0,0,0-1.115.787.931.931,0,0,0,.767,1.1Zm0,0" transform="translate(-155.688 -53.945)"/>
  <path id="Path_80" data-name="Path 80" class="cls-2" d="M192.11,14.983A18.306,18.306,0,0,0,177.2.073a.959.959,0,0,0-1.1.787.971.971,0,0,0,.8,1.115A16.356,16.356,0,0,1,190.218,15.3a.964.964,0,0,0,.951.8c.061,0,.1-.01.164-.01a.954.954,0,0,0,.777-1.1Zm0,0" transform="translate(-158.078 -0.059)"/>
</svg>
