<svg xmlns="http://www.w3.org/2000/svg" viewBox="0 0 19.773 19.773"><defs><style>.a{fill:#003e93;}.b{fill:#ff9600;}</style></defs><path class="a" d="M17.381,19.773H2.392A2.4,2.4,0,0,1,0,17.381V2.392A2.4,2.4,0,0,1,2.392,0h14.99a2.4,2.4,0,0,1,2.392,2.392v14.99A2.4,2.4,0,0,1,17.381,19.773ZM2.392,1.344A1.046,1.046,0,0,0,1.344,2.392v14.99a1.046,1.046,0,0,0,1.048,1.048h14.99a1.046,1.046,0,0,0,1.048-1.048V2.392a1.046,1.046,0,0,0-1.048-1.048Z"/><path class="b" d="M62.538,76.707a2.434,2.434,0,1,0-2.865.005A3.711,3.711,0,0,0,57.4,80.131h.806a2.9,2.9,0,0,1,5.794,0h.806A3.7,3.7,0,0,0,62.538,76.707Zm-1.43-3.6a1.631,1.631,0,1,1-1.634,1.634A1.631,1.631,0,0,1,61.108,73.106Z" transform="translate(-54.315 -68.414)"/><g transform="translate(3.015 15.753)"><rect class="a" width="13.743" height="0.806"/></g><g transform="translate(3.015 13.361)"><rect class="a" width="13.743" height="0.806"/></g><g transform="translate(11.856 8.578)"><rect class="a" width="4.902" height="0.806"/></g><g transform="translate(11.856 10.97)"><rect class="a" width="4.902" height="0.806"/></g><g transform="translate(11.856 6.186)"><rect class="a" width="4.902" height="0.806"/></g><g transform="translate(11.856 3.794)"><rect class="a" width="4.902" height="0.806"/></g></svg>