<svg xmlns="http://www.w3.org/2000/svg" viewBox="0 0 29.408 23.432"><defs><style>.a{fill:#003e93;}</style></defs><g transform="translate(-1517.52 -137.568)"><path class="a" d="M115.986,76.863V75.744h-5.929l.194-3.177-1.119-.067-.194,3.244h-6.2l-.194-3.244-1.119.067.194,3.177H96v1.119h5.69l.194,3.125H96v1.119h5.944l.224,3.721,1.119-.067-.224-3.654H108.6l-.224,3.654,1.119.067.224-3.721h6.264V79.987H109.8l.194-3.125Zm-7.309,3.125H103l-.194-3.125h6.056Z" transform="translate(1428.68 70.475)"/><g transform="translate(1527.064 157.48)"><circle class="a" cx="1.76" cy="1.76" r="1.76"/><g transform="translate(11.306)"><circle class="a" cx="1.76" cy="1.76" r="1.76"/></g></g><path class="a" d="M29.085,4.445a1.558,1.558,0,0,0-1.231-.6H6.093L5.384,1.156A1.556,1.556,0,0,0,3.885,0H0V1.864H3.639l.522,1.976H4.154L7.726,17.406a1.556,1.556,0,0,0,1.5,1.156H24.8a1.556,1.556,0,0,0,1.5-1.156L29.353,5.787A1.52,1.52,0,0,0,29.085,4.445ZM24.558,16.7H9.471l-.283-1.081H9.2L6.585,5.705H27.459Z" transform="translate(1517.52 137.568)"/></g></svg>