<?xml version="1.0" encoding="UTF-8"?>
<svg width="30px" height="24px" viewBox="0 0 30 24" version="1.1" xmlns="http://www.w3.org/2000/svg" xmlns:xlink="http://www.w3.org/1999/xlink">
    <!-- Generator: Sketch 51 (57462) - http://www.bohemiancoding.com/sketch -->
    <title>cart</title>
    <desc>Created with Sketch.</desc>
    <defs></defs>
    <g id="Page-1" stroke="none" stroke-width="1" fill="none" fill-rule="evenodd">
        <g id="cart" fill="#FFFFFF" fill-rule="nonzero">
            <path d="M27.146,9.77 L27.146,8.651 L21.217,8.651 L21.411,5.474 L20.292,5.407 L20.098,8.651 L13.898,8.651 L13.704,5.407 L12.585,5.474 L12.779,8.651 L7.16,8.651 L7.16,9.77 L12.85,9.77 L13.044,12.895 L7.16,12.895 L7.16,14.014 L13.104,14.014 L13.328,17.735 L14.447,17.668 L14.223,14.014 L19.76,14.014 L19.536,17.668 L20.655,17.735 L20.879,14.014 L27.143,14.014 L27.143,12.894 L20.96,12.894 L21.154,9.769 L27.146,9.77 Z M19.837,12.895 L14.16,12.895 L13.966,9.77 L20.022,9.77 L19.837,12.895 Z" id="Shape"></path>
            <circle id="Oval" cx="22.61" cy="21.672" r="1.76"></circle>
            <circle id="Oval" cx="11.304" cy="21.672" r="1.76"></circle>
            <path d="M29.085,4.445 C28.7892702,4.06571832 28.3349472,3.8442774 27.854,3.845 L6.093,3.845 L5.384,1.156 C5.20314099,0.47608944 4.58855086,0.00212934263 3.885,0 L0,0 L0,1.864 L3.639,1.864 L4.161,3.84 L4.154,3.84 L7.726,17.406 C7.90695558,18.0862687 8.522077,18.5603223 9.226,18.562 L24.8,18.562 C25.503923,18.5603223 26.1190444,18.0862687 26.3,17.406 L29.353,5.787 C29.4814807,5.3224763 29.382043,4.82454579 29.085,4.445 Z M24.558,16.7 L9.471,16.7 L9.188,15.619 L9.2,15.619 L6.585,5.705 L27.459,5.705 L24.558,16.7 Z" id="Shape"></path>
        </g>
    </g>
</svg>