<svg xmlns="http://www.w3.org/2000/svg" viewBox="0 0 27.433 44.691"><defs><style>.a{fill:#003e93;}.b{fill:#ff9600;}</style></defs><g transform="translate(0 0)"><path class="a" d="M22.3,8.888H20.675V1.109a1.109,1.109,0,0,0-2.219,0V8.875H9V1.109a1.109,1.109,0,1,0-2.219,0V8.875H5.131A5.144,5.144,0,0,0,0,14.006V34.051a5.136,5.136,0,0,0,5.131,5.131H10.8V42.46a2.227,2.227,0,0,0,2.231,2.231h2.408a2.227,2.227,0,0,0,2.231-2.231V39.182H22.3a5.136,5.136,0,0,0,5.131-5.131V14.006A5.141,5.141,0,0,0,22.3,8.888Zm-7.136,33.3H13.3V39.17h1.866Zm9.947-8.132a2.827,2.827,0,0,1-2.824,2.824H5.131a2.827,2.827,0,0,1-2.824-2.824V14.006a2.827,2.827,0,0,1,2.824-2.824H22.3a2.827,2.827,0,0,1,2.824,2.824V34.051Z"/><path class="b" d="M81.714,123.449l-2.761.87L79.2,117.7l-2.774,8.106-.731,2.143,2.332-.731,2.736-.87-.3,6.341.126.025,2.711-7.854.744-2.156Z" transform="translate(-66.157 -102.862)"/></g></svg>