<svg xmlns="http://www.w3.org/2000/svg" viewBox="0 0 35.053 30.566"><defs><style>.a{fill:#003e93;}.b{fill:#ff9600;}</style></defs><g transform="translate(0 -0.001)"><g transform="translate(0 7.708)"><path class="a" d="M22.869,91.246V89l-2.184-.186a9.344,9.344,0,0,0-1.8-4.28l1.44-1.7-1.587-1.587L17.022,82.7a9.247,9.247,0,0,0-4.26-1.753L12.575,78.7H10.333l-.186,2.243A9.353,9.353,0,0,0,5.886,82.7L4.172,81.246,2.586,82.833l1.44,1.7a9.3,9.3,0,0,0-1.8,4.28L0,89v2.243l2.164.186a9.272,9.272,0,0,0,1.773,4.339L2.556,97.416,4.143,99l1.636-1.381a9.267,9.267,0,0,0,4.358,1.822l.176,2.115h2.243l.176-2.115a9.267,9.267,0,0,0,4.358-1.822L18.726,99l1.587-1.587-1.391-1.645a9.314,9.314,0,0,0,1.773-4.339Zm-4.535-1.058a6.895,6.895,0,1,1-6.895-6.895A6.905,6.905,0,0,1,18.334,90.188Z" transform="translate(0 -78.7)"/><g transform="translate(5.631 5.69)"><path class="b" d="M63.3,148.4a5.8,5.8,0,1,1,5.8-5.8A5.8,5.8,0,0,1,63.3,148.4Zm0-10.215a4.417,4.417,0,1,0,4.417,4.417A4.418,4.418,0,0,0,63.3,138.181Z" transform="translate(-57.5 -136.8)"/></g></g><g transform="translate(18.726)"><path class="a" d="M207.526,8.971V7.365l-1.518-.127a6.634,6.634,0,0,0-1.3-3.095l1-1.185-1.136-1.136-1.185,1A6.7,6.7,0,0,0,200.3,1.547L200.161,0h-1.606l-.127,1.557a6.6,6.6,0,0,0-3.085,1.273l-1.185-1-1.136,1.136,1,1.185a6.634,6.634,0,0,0-1.3,3.095l-1.518.127V8.981l1.5.127a6.729,6.729,0,0,0,1.283,3.144l-.96,1.136,1.136,1.136,1.126-.95a6.662,6.662,0,0,0,3.154,1.312l.127,1.459h1.606l.127-1.459a6.762,6.762,0,0,0,3.154-1.312l1.126.95,1.136-1.136-.96-1.136a6.729,6.729,0,0,0,1.283-3.144Zm-8.168,3.888a4.642,4.642,0,1,1,4.652-4.652A4.646,4.646,0,0,1,199.358,12.859Z" transform="translate(-191.2)"/><g transform="translate(4.27 4.319)"><path class="b" d="M238.688,51.876a3.888,3.888,0,1,1,3.888-3.888A3.891,3.891,0,0,1,238.688,51.876Zm0-6.366a2.478,2.478,0,1,0,2.478,2.478A2.481,2.481,0,0,0,238.688,45.51Z" transform="translate(-234.8 -44.1)"/></g></g></g></svg>