<svg xmlns="http://www.w3.org/2000/svg" viewBox="0 0 26.742 22.097">
  <defs>
    <style>
      .cls-1 {
        fill: #ff9600;
        stroke: #ff9600;
        stroke-width: 0.8px;
      }
    </style>
  </defs>
  <g id="Group_1714" data-name="Group 1714" transform="translate(-1448.89 -138.361)">
    <g id="Group_1540" data-name="Group 1540">
      <path id="Path_482" data-name="Path 482" class="cls-1" d="M203.664,39.384a.4.4,0,0,1-.351-.575l4.446-8.517a.41.41,0,0,1,.694,0l4.454,8.517a.386.386,0,0,1-.168.527.4.4,0,0,1-.535-.168l-4.095-7.847-4.095,7.847a.4.4,0,0,1-.351.216Zm0,0" transform="translate(1262.274 110.928)"/>
      <path id="Path_483" data-name="Path 483" class="cls-1" d="M9.349,71.115A.406.406,0,0,1,9,70.907L4.9,63.052.807,70.9a.4.4,0,0,1-.527.168.393.393,0,0,1-.168-.527l4.446-8.517a.4.4,0,0,1,.694,0L9.7,70.54a.386.386,0,0,1-.168.527.394.394,0,0,1-.184.048Zm0,0" transform="translate(1449.253 81.736)"/>
      <path id="Path_480" data-name="Path 480" class="cls-1" d="M188.006,23.142a.38.38,0,0,1-.383-.327.39.39,0,0,1,.319-.455l8.485-1.413a.4.4,0,0,1,.455.319.4.4,0,0,1-.319.455l-8.493,1.421Zm0,0" transform="translate(1276.678 119.355)"/>
      <path id="Path_481" data-name="Path 481" class="cls-1" d="M21.117,50.834a.394.394,0,0,1-.072-.782L29.6,48.623a.39.39,0,0,1,.455.319.4.4,0,0,1-.319.455l-8.549,1.429c-.024,0-.048.008-.072.008Zm0,0" transform="translate(1430.253 93.89)"/>
      <path id="Path_484" data-name="Path 484" class="cls-1" d="M157.791,89.25a.392.392,0,0,1-.391-.391V74.091a.392.392,0,0,1,.391-.391.4.4,0,0,1,.4.391V88.851a.406.406,0,0,1-.4.4Zm0,0" transform="translate(1304.483 70.808)"/>
      <path id="Path_485" data-name="Path 485" class="cls-1" d="M157.791,3.44a.392.392,0,0,1-.391-.391V2.091a.392.392,0,0,1,.391-.391.4.4,0,0,1,.4.391v.958a.4.4,0,0,1-.4.391Zm0,0" transform="translate(1304.483 137.061)"/>
      <path id="Path_486" data-name="Path 486" class="cls-1" d="M103.244,259.482H92.891a.391.391,0,1,1,0-.782h10.361a.391.391,0,1,1-.008.782Zm0,0" transform="translate(1364.202 -99.424)"/>
      <path id="Path_489" data-name="Path 489" class="cls-1" d="M130.186,19.28a2.79,2.79,0,1,1,2.794-2.794,2.79,2.79,0,0,1-2.794,2.794Zm0-4.8a2,2,0,1,0,2,2,2.01,2.01,0,0,0-2-2Zm0,0" transform="translate(1332.088 126.019)"/>
    </g>
    <path id="Path_487" data-name="Path 487" class="cls-1" d="M208.137,141.737a4.846,4.846,0,0,1-4.837-4.845.392.392,0,0,1,.391-.391h8.892a.392.392,0,0,1,.391.391,4.836,4.836,0,0,1-4.837,4.845Zm-4.031-4.446a4.054,4.054,0,0,0,8.07,0Zm0,0" transform="translate(1262.247 13.021)"/>
    <path id="Path_488" data-name="Path 488" class="cls-1" d="M4.837,173.536A4.844,4.844,0,0,1,0,168.7a.4.4,0,0,1,.391-.4H9.284a.394.394,0,0,1,.391.4,4.839,4.839,0,0,1-4.837,4.837ZM.806,169.09a4.054,4.054,0,0,0,8.07,0Zm0,0" transform="translate(1449.319 -16.24)"/>
  </g>
</svg>
