<svg xmlns="http://www.w3.org/2000/svg" viewBox="0 0 15.242 33.191"><defs><style>.a{fill:#003e93;}.b{fill:#ff9600;}</style></defs><g transform="translate(-0.001)"><path class="a" d="M15.234,12.5a7.6,7.6,0,0,0-1.2-4.094v-5.8A2.546,2.546,0,0,0,11.557,0H3.677A2.552,2.552,0,0,0,1.2,2.606v5.8A7.6,7.6,0,0,0,0,12.5V20.69a7.6,7.6,0,0,0,1.2,4.094v5.8a2.546,2.546,0,0,0,2.478,2.606h7.889a2.552,2.552,0,0,0,2.478-2.606v-5.8a7.518,7.518,0,0,0,1.2-4.094V12.5ZM3.468,2.606c0-.2.127-.336.209-.336h7.889c.082,0,.209.136.209.336v3.5a7.588,7.588,0,0,0-8.3,0v-3.5Zm-1.2,9.9a5.347,5.347,0,0,1,10.695,0V20.69a5.347,5.347,0,0,1-10.695,0Zm9.3,18.421H3.677c-.082,0-.209-.136-.209-.336v-3.5a7.588,7.588,0,0,0,8.3,0v3.5C11.766,30.786,11.639,30.922,11.566,30.922Z"/><g transform="translate(5.565 15.343)"><path class="b" d="M65.39,170.135A1.16,1.16,0,0,0,64.282,169a1.1,1.1,0,0,0-.944.545,1.069,1.069,0,0,0-.926-.545,1.16,1.16,0,0,0-1.108,1.135,1.016,1.016,0,0,0,.036.436,1.772,1.772,0,0,0,.572.944l1.425,1.3,1.453-1.3a1.9,1.9,0,0,0,.572-.944,1.1,1.1,0,0,0,.027-.436Zm0,0" transform="translate(-61.295 -169)"/></g></g></svg>