<svg xmlns="http://www.w3.org/2000/svg" viewBox="0 0 19.198 19.335"><defs><style>.a{fill:#003e93;}.b{fill:#ff9600;}</style></defs><g transform="translate(0 0.05)"><path class="a" d="M17.736,62H10.991v1.312h6.745c.052,0,.15.1.15.275v2.333c0,.171-.1.275-.15.275H10.991v1.312H16.72v8.352a.963.963,0,0,1-.84,1.052H3.318a.966.966,0,0,1-.84-1.052V67.506H8.4V66.194H1.462c-.052,0-.15-.1-.15-.275V63.586c0-.171.1-.275.15-.275H8.4V62H1.462A1.531,1.531,0,0,0,0,63.586v2.333A1.551,1.551,0,0,0,1.27,67.49v8.362a2.167,2.167,0,0,0,2.048,2.266H15.88a2.167,2.167,0,0,0,2.048-2.266V67.49a1.551,1.551,0,0,0,1.27-1.571V63.586A1.527,1.527,0,0,0,17.736,62Z" transform="translate(0 -58.834)"/><path class="b" d="M123.418.362a1.547,1.547,0,0,0-1.358-.389,2.562,2.562,0,0,0-1.379.736,2.7,2.7,0,0,0-.591.876A2.7,2.7,0,0,0,119.5.709a2.588,2.588,0,0,0-1.379-.731,1.547,1.547,0,0,0-1.358.389,1.547,1.547,0,0,0-.389,1.358,2.562,2.562,0,0,0,.736,1.379,2.694,2.694,0,0,0,1.042.653V18.077h.778V3.856a1.453,1.453,0,0,0,.918-.4,1.256,1.256,0,0,0,.238-.332,1.385,1.385,0,0,0,.238.332,1.4,1.4,0,0,0,.793.389V18.072h.778V3.794a2.686,2.686,0,0,0,1.166-.69,2.562,2.562,0,0,0,.736-1.379A1.524,1.524,0,0,0,123.418.362ZM119.3,2.9a.8.8,0,0,1-.684.171,1.839,1.839,0,0,1-.954-.518,1.784,1.784,0,0,1-.518-.954.784.784,0,0,1,.171-.684.7.7,0,0,1,.5-.181A.947.947,0,0,1,118,.751a1.838,1.838,0,0,1,.954.518,1.8,1.8,0,0,1,.518.954A.81.81,0,0,1,119.3,2.9Zm3.219-.353a1.8,1.8,0,0,1-.954.518.784.784,0,0,1-.684-.171c-.347-.347-.187-1.1.353-1.638A1.8,1.8,0,0,1,122.19.74a.947.947,0,0,1,.181-.016.7.7,0,0,1,.5.181C123.221,1.264,123.061,2.01,122.522,2.55Z" transform="translate(-110.318 0)"/></g></svg>