<svg xmlns="http://www.w3.org/2000/svg" viewBox="0 0 30.902 31.639"><defs><style>.a{fill:#ff9600;}.b{fill:#003e93;}</style></defs><g transform="translate(0)"><g transform="translate(18.131)"><g transform="translate(7.833 1.922)"><rect class="a" width="1.27" height="10.806"/></g><path class="b" d="M225.211,0h-4.2a6.985,6.985,0,0,0-6.91,6.97V21.256a3.965,3.965,0,0,0,2.9,3.819v6.563h2.117V25.075a3.965,3.965,0,0,0,2.9-3.819V13.948h3.184a1.663,1.663,0,0,0,1.66-1.66V1.66A1.652,1.652,0,0,0,225.211,0Zm-7.139,23.1a1.85,1.85,0,0,1-1.846-1.846V11.974a6.99,6.99,0,0,0,3.692,1.88v7.4A1.85,1.85,0,0,1,218.072,23.1Zm6.69-11.272h-3.675a4.857,4.857,0,0,1-.008-9.713h3.684Z" transform="translate(-214.1)"/></g><g transform="translate(3.819 3.811)"><path class="a" d="M48.259,51.318a3.159,3.159,0,0,1,0-6.318v1.27a1.888,1.888,0,1,0,1.888,1.888h1.27A3.17,3.17,0,0,1,48.259,51.318Z" transform="translate(-45.1 -45)"/></g><path class="b" d="M13.948,6.978A6.974,6.974,0,1,0,3.015,12.711v8.545a3.965,3.965,0,0,0,2.9,3.819v6.563H8.037V25.075a3.965,3.965,0,0,0,2.9-3.819V12.711A6.985,6.985,0,0,0,13.948,6.978ZM8.824,21.256a1.846,1.846,0,1,1-3.692,0V13.7a7.039,7.039,0,0,0,1.846.254A6.657,6.657,0,0,0,8.824,13.7ZM6.978,11.831a4.857,4.857,0,1,1,4.861-4.852A4.859,4.859,0,0,1,6.978,11.831Z"/></g></svg>