<svg xmlns="http://www.w3.org/2000/svg" xmlns:xlink="http://www.w3.org/1999/xlink" viewBox="0 0 17.379 19.624">
  <defs>
    <style>
      .cls-1, .cls-3 {
        fill: #ff9600;
      }

      .cls-2 {
        clip-path: url(#clip-path);
      }

      .cls-3 {
        fill-rule: evenodd;
      }
    </style>
    <clipPath id="clip-path">
      <rect id="Rectangle_23" data-name="Rectangle 23" class="cls-1" width="17.378" height="19.624"/>
    </clipPath>
  </defs>
  <g id="Group_170" data-name="Group 170" transform="translate(0 0)">
    <g id="Group_169" data-name="Group 169">
      <g id="Group_168" data-name="Group 168" class="cls-2">
        <path id="Path_83" data-name="Path 83" class="cls-3" d="M15.8,10.813A1.573,1.573,0,0,0,16,7.678l-5.564-.7A10.137,10.137,0,0,0,11.6,2.165,1.968,1.968,0,0,0,9.418,0c-.637,0-.8,1.224-.8,1.224h0a8.779,8.779,0,0,1-.981,2.741C6.909,5.381,5.928,5.25,4.764,6.514a6.9,6.9,0,0,0-.749,1.042.442.442,0,0,0-.061.1.645.645,0,0,1-.081.142c-.04.081-.091.162-.132.243a3.09,3.09,0,0,1-2.3.647A1.315,1.315,0,0,0,0,10.136v6.626c0,1,.415,1.345,1.447,1.345H2.893a6.955,6.955,0,0,1,2.175.728,18.639,18.639,0,0,0,6.049.728h2.205a1.748,1.748,0,0,0,1.214-.516.953.953,0,0,0,.283-.566c.01-.051.02-.243.02-.273a1.178,1.178,0,0,0-.779-1.285c.01,0,0-.01.02-.01l.941.04a1.564,1.564,0,0,0,1.669-1.588,1.533,1.533,0,0,0-1.527-1.5l.5.02a1.539,1.539,0,0,0,.142-3.075Zm0,0" transform="translate(0 0)"/>
      </g>
    </g>
  </g>
</svg>
