<svg id="Group_1891" data-name="Group 1891" xmlns="http://www.w3.org/2000/svg" viewBox="0 0 25.631 36.25">
  <defs>
    <style>
      .cls-1 {
        fill: #ff9600;
      }

      .cls-2 {
        fill: #fff;
      }
    </style>
  </defs>
  <g id="Group_1889" data-name="Group 1889" transform="translate(5.702 5.702)">
    <path id="Path_527" data-name="Path 527" class="cls-1" d="M57.213,64.327a7.113,7.113,0,1,1,7.113-7.113A7.116,7.116,0,0,1,57.213,64.327Zm0-12.52a5.406,5.406,0,1,0,5.406,5.406A5.411,5.411,0,0,0,57.213,51.807Z" transform="translate(-50.1 -50.1)"/>
  </g>
  <g id="Group_1890" data-name="Group 1890">
    <path id="Path_528" data-name="Path 528" class="cls-2" d="M12.816,36.25,11.78,35.169C11.3,34.657,0,22.638,0,12.816a12.816,12.816,0,0,1,25.631,0c0,9.822-11.3,21.841-11.78,22.342Zm0-33.4a9.982,9.982,0,0,0-9.97,9.97c0,7.079,7.227,16.082,9.97,19.235,2.732-3.153,9.97-12.155,9.97-19.235A9.982,9.982,0,0,0,12.816,2.845Z"/>
  </g>
</svg>
