<svg xmlns="http://www.w3.org/2000/svg" viewBox="0 0 43.57 37.589"><defs><style>.a{fill:#ff9600;}.b{fill:#fff;}</style></defs><g transform="translate(8.832)"><path class="a" d="M76.688,12.953h-2.66a10.275,10.275,0,1,0-20.551,0H50.8a12.944,12.944,0,1,1,25.888,0Z" transform="translate(-50.8)"/></g><g transform="translate(0 14.587)"><g transform="translate(0.4 0.226)"><path class="b" d="M2.3,85.2H6.316a7.289,7.289,0,0,1,2.469.382,5.184,5.184,0,0,1,1.843,1.061,4.437,4.437,0,0,1,1.147,1.617,5.352,5.352,0,0,1,.4,2.069v.035a5.5,5.5,0,0,1-.4,2.086A4.608,4.608,0,0,1,10.611,94.1a5.326,5.326,0,0,1-1.86,1.1,7.383,7.383,0,0,1-2.486.4H2.3Zm2.886,2.538v5.285H6.351a3.074,3.074,0,0,0,2.086-.678,2.416,2.416,0,0,0,.782-1.93v-.035a2.478,2.478,0,0,0-.782-1.947,3.082,3.082,0,0,0-2.086-.7Z" transform="translate(-2.3 -85.2)"/></g><g transform="translate(11.771 0.226)"><path class="b" d="M67.7,85.2h4.9a6.285,6.285,0,0,1,2.034.3,3.5,3.5,0,0,1,1.356.817,3.291,3.291,0,0,1,.921,2.417v.035a3.355,3.355,0,0,1-.574,2,3.675,3.675,0,0,1-1.565,1.217L77.245,95.6h-3.3L71.855,92.45H70.586V95.6H67.7Zm4.781,4.972a1.686,1.686,0,0,0,1.13-.33,1.135,1.135,0,0,0,.4-.9V88.9a1.1,1.1,0,0,0-.417-.939,1.854,1.854,0,0,0-1.13-.313h-1.9v2.5h1.913Z" transform="translate(-67.7 -85.2)"/></g><g transform="translate(22.098)"><path class="b" d="M132.664,94.714a5.829,5.829,0,0,1-2.225-.417,5.3,5.3,0,0,1-1.756-1.148,5.5,5.5,0,0,1-1.165-1.7,5.322,5.322,0,0,1-.417-2.086v-.052a5.345,5.345,0,0,1,.417-2.1,5.158,5.158,0,0,1,1.182-1.721,5.925,5.925,0,0,1,1.773-1.165,6.143,6.143,0,0,1,4.451,0,5.3,5.3,0,0,1,1.756,1.147,5.5,5.5,0,0,1,1.165,1.7,5.322,5.322,0,0,1,.417,2.086v.035a5.345,5.345,0,0,1-.417,2.1,5.158,5.158,0,0,1-1.182,1.721,5.688,5.688,0,0,1-4,1.6Zm.017-2.608a2.445,2.445,0,0,0,1.078-.226,2.577,2.577,0,0,0,.817-.609,2.815,2.815,0,0,0,.539-.887,3.1,3.1,0,0,0,.191-1.061v-.017a3.2,3.2,0,0,0-.191-1.078,2.778,2.778,0,0,0-.539-.9,2.466,2.466,0,0,0-.835-.609,2.684,2.684,0,0,0-2.156,0,2.466,2.466,0,0,0-.835.609,2.815,2.815,0,0,0-.539.887,3.1,3.1,0,0,0-.191,1.061v.035a3.023,3.023,0,0,0,.191,1.061,2.634,2.634,0,0,0,.556.887,2.471,2.471,0,0,0,.852.609A2.167,2.167,0,0,0,132.681,92.106Z" transform="translate(-127.1 -83.9)"/></g><g transform="translate(34.738 0.226)"><path class="b" d="M199.8,85.2h4.468a6.247,6.247,0,0,1,1.773.243,3.886,3.886,0,0,1,1.356.713,3.146,3.146,0,0,1,.869,1.147,3.589,3.589,0,0,1,.3,1.53v.035a3.682,3.682,0,0,1-.33,1.617,3.451,3.451,0,0,1-.921,1.182,4.138,4.138,0,0,1-1.408.713,6.337,6.337,0,0,1-1.773.243h-1.443V95.6h-2.869V85.2Zm4.26,5.146a1.83,1.83,0,0,0,1.2-.365,1.223,1.223,0,0,0,.452-.991v-.035a1.189,1.189,0,0,0-.452-1.008,1.948,1.948,0,0,0-1.217-.348h-1.356v2.747Z" transform="translate(-199.8 -85.2)"/></g><g transform="translate(0 12.205)"><g transform="translate(0 0)"><path class="b" d="M4.868,164.862a7.876,7.876,0,0,1-2.643-.435A6.488,6.488,0,0,1,0,163.141l1.6-1.913a5.344,5.344,0,0,0,3.373,1.252,1.794,1.794,0,0,0,.9-.191.558.558,0,0,0,.3-.522v-.035a.571.571,0,0,0-.07-.3.653.653,0,0,0-.278-.243,3.357,3.357,0,0,0-.539-.226c-.226-.07-.522-.156-.869-.243-.556-.122-1.061-.261-1.547-.417a4.785,4.785,0,0,1-1.234-.591,2.766,2.766,0,0,1-.835-.9,2.589,2.589,0,0,1-.3-1.339v-.035A3.131,3.131,0,0,1,.782,156.1a3.35,3.35,0,0,1,.8-1.061,3.866,3.866,0,0,1,1.269-.7A5.523,5.523,0,0,1,4.52,154.1a7.716,7.716,0,0,1,2.382.348,6.078,6.078,0,0,1,1.9,1.026l-1.443,2.034a4.915,4.915,0,0,0-1.46-.765,4.336,4.336,0,0,0-1.443-.243,1.363,1.363,0,0,0-.782.191.56.56,0,0,0-.261.487v.035a.6.6,0,0,0,.087.313.78.78,0,0,0,.278.243,3.026,3.026,0,0,0,.556.226,8.483,8.483,0,0,0,.9.226,11.051,11.051,0,0,1,1.6.452,4.988,4.988,0,0,1,1.217.626,2.4,2.4,0,0,1,.765.9,2.773,2.773,0,0,1,.261,1.252v.035a3.368,3.368,0,0,1-.3,1.426,3.149,3.149,0,0,1-.852,1.061,3.5,3.5,0,0,1-1.321.661A6.185,6.185,0,0,1,4.868,164.862Z" transform="translate(0 -154.1)"/></g><g transform="translate(10.449 0.209)"><path class="b" d="M60.1,155.3h2.869v3.877h3.686V155.3h2.869v10.38H66.672v-3.947H62.986v3.947H60.1Z" transform="translate(-60.1 -155.3)"/></g><g transform="translate(21.403)"><path class="b" d="M128.664,164.9a5.829,5.829,0,0,1-2.225-.417,5.3,5.3,0,0,1-1.756-1.147,5.5,5.5,0,0,1-1.165-1.7,5.322,5.322,0,0,1-.417-2.086v-.035a5.345,5.345,0,0,1,.417-2.1,5.158,5.158,0,0,1,1.182-1.721,5.925,5.925,0,0,1,1.773-1.165,6.143,6.143,0,0,1,4.451,0,5.3,5.3,0,0,1,1.756,1.147,5.5,5.5,0,0,1,1.165,1.7,5.322,5.322,0,0,1,.417,2.086v.035a5.345,5.345,0,0,1-.417,2.1,5.158,5.158,0,0,1-1.182,1.721,5.925,5.925,0,0,1-1.773,1.165A5.829,5.829,0,0,1,128.664,164.9Zm.035-2.591a2.445,2.445,0,0,0,1.078-.226,2.577,2.577,0,0,0,.817-.609,2.815,2.815,0,0,0,.539-.887,3.1,3.1,0,0,0,.191-1.061v-.035a3.2,3.2,0,0,0-.191-1.078,2.778,2.778,0,0,0-.539-.9,2.467,2.467,0,0,0-.835-.609,2.683,2.683,0,0,0-2.156,0,2.467,2.467,0,0,0-.835.609,2.815,2.815,0,0,0-.539.887,3.1,3.1,0,0,0-.191,1.061v.035a3.023,3.023,0,0,0,.191,1.061,2.634,2.634,0,0,0,.556.887,2.471,2.471,0,0,0,.852.609A1.925,1.925,0,0,0,128.7,162.306Z" transform="translate(-123.1 -154.1)"/></g><g transform="translate(34.06 0.209)"><path class="b" d="M195.9,155.3h4.468a6.247,6.247,0,0,1,1.773.243,3.886,3.886,0,0,1,1.356.713,3.145,3.145,0,0,1,.869,1.148,3.588,3.588,0,0,1,.3,1.53v.035a3.683,3.683,0,0,1-.33,1.617,3.451,3.451,0,0,1-.921,1.182,4.138,4.138,0,0,1-1.408.713,6.337,6.337,0,0,1-1.773.243h-1.443v2.956h-2.869V155.3Zm4.26,5.164a1.83,1.83,0,0,0,1.2-.365,1.223,1.223,0,0,0,.452-.991v-.035a1.189,1.189,0,0,0-.452-1.008,1.948,1.948,0,0,0-1.217-.348h-1.356v2.747Z" transform="translate(-195.9 -155.3)"/></g></g></g><g transform="translate(38.528 35.086)"><path class="a" d="M221.6,211.3h.609v.643H221.6Z" transform="translate(-221.6 -209.648)"/><path class="a" d="M227,201.8h.591v.939l.748-.939h.713l-.817.991.852,1.3h-.713l-.539-.852-.226.261v.591H227Z" transform="translate(-226.061 -201.8)"/><path class="a" d="M239.6,203.643l1.078-1.3h-1.043V201.8h1.878v.452l-1.078,1.3h1.078v.539H239.6Z" transform="translate(-236.47 -201.8)"/></g></svg>