<svg xmlns="http://www.w3.org/2000/svg" viewBox="0 0 86.402 74.578"><defs><style>.a{fill:#ff9600;}.b{fill:#003e93;}</style></defs><g transform="translate(-406 -74)"><g transform="translate(423.515 74)"><path class="a" d="M149.139,411.086h-5.275a20.377,20.377,0,0,0-40.754,0H97.8a25.669,25.669,0,1,1,51.339,0Z" transform="translate(-97.8 -385.4)"/></g><g transform="translate(406 102.962)"><g transform="translate(0.793 0.448)"><path class="b" d="M49.3,470.7h7.965a14.455,14.455,0,0,1,4.9.759,10.279,10.279,0,0,1,3.655,2.1,8.8,8.8,0,0,1,2.276,3.206,10.613,10.613,0,0,1,.793,4.1v.069a10.916,10.916,0,0,1-.793,4.137,9.139,9.139,0,0,1-2.31,3.275,10.562,10.562,0,0,1-3.689,2.172,14.642,14.642,0,0,1-4.93.793H49.3Zm5.723,5.034v10.481h2.31a6.1,6.1,0,0,0,4.137-1.345,4.791,4.791,0,0,0,1.552-3.827v-.069a4.914,4.914,0,0,0-1.552-3.862,6.111,6.111,0,0,0-4.137-1.379Z" transform="translate(-49.3 -470.7)"/></g><g transform="translate(23.307 0.448)"><path class="b" d="M114.6,470.7h9.723a12.464,12.464,0,0,1,4.034.586,6.932,6.932,0,0,1,2.689,1.62,6.526,6.526,0,0,1,1.827,4.793v.069a6.653,6.653,0,0,1-1.138,3.965,7.288,7.288,0,0,1-3.1,2.414l4.9,7.172h-6.551l-4.137-6.241h-2.517v6.241h-5.689V470.7Zm9.516,9.861a3.343,3.343,0,0,0,2.241-.655,2.15,2.15,0,0,0,.793-1.793v-.069a2.179,2.179,0,0,0-.827-1.862,3.676,3.676,0,0,0-2.241-.621h-3.758v4.965h3.793Z" transform="translate(-114.6 -470.7)"/></g><g transform="translate(43.822)"><path class="b" d="M185.133,490.811a11.559,11.559,0,0,1-4.413-.827,10.518,10.518,0,0,1-3.482-2.276,10.905,10.905,0,0,1-2.31-3.379,10.554,10.554,0,0,1-.827-4.137v-.069a10.6,10.6,0,0,1,.827-4.172,10.228,10.228,0,0,1,2.345-3.413,11.749,11.749,0,0,1,3.517-2.31,12.182,12.182,0,0,1,8.826,0A10.517,10.517,0,0,1,193.1,472.5a10.9,10.9,0,0,1,2.31,3.379,10.554,10.554,0,0,1,.827,4.137v.069a10.6,10.6,0,0,1-.827,4.172,10.228,10.228,0,0,1-2.345,3.413,11.059,11.059,0,0,1-7.93,3.138Zm.034-5.137a4.849,4.849,0,0,0,2.138-.448,5.11,5.11,0,0,0,1.62-1.207,5.582,5.582,0,0,0,1.069-1.758,6.142,6.142,0,0,0,.379-2.1v-.069a6.339,6.339,0,0,0-.379-2.138,5.509,5.509,0,0,0-1.069-1.793,4.891,4.891,0,0,0-1.655-1.207,5.322,5.322,0,0,0-4.275,0,4.891,4.891,0,0,0-1.655,1.207,6,6,0,0,0-1.069,1.758,6.142,6.142,0,0,0-.379,2.1v.069a6,6,0,0,0,.379,2.1,5.225,5.225,0,0,0,1.1,1.758,4.9,4.9,0,0,0,1.689,1.207A3.971,3.971,0,0,0,185.168,485.674Z" transform="translate(-174.1 -469.4)"/></g><g transform="translate(68.888 0.448)"><path class="b" d="M246.8,470.7h8.861a12.387,12.387,0,0,1,3.517.483,7.7,7.7,0,0,1,2.689,1.414,6.237,6.237,0,0,1,1.724,2.276,7.116,7.116,0,0,1,.586,3.034v.069a7.3,7.3,0,0,1-.655,3.207,6.843,6.843,0,0,1-1.827,2.345,8.206,8.206,0,0,1-2.793,1.414,12.565,12.565,0,0,1-3.517.483h-2.862v5.9h-5.689V470.7Zm8.447,10.206a3.63,3.63,0,0,0,2.379-.724,2.425,2.425,0,0,0,.9-1.965v-.069a2.357,2.357,0,0,0-.9-2,3.864,3.864,0,0,0-2.414-.69h-2.689v5.448h2.724Z" transform="translate(-246.8 -470.7)"/></g><g transform="translate(0 24.204)"><path class="b" d="M56.654,560.942a15.62,15.62,0,0,1-5.241-.862A12.865,12.865,0,0,1,47,557.529l3.172-3.793a10.6,10.6,0,0,0,6.689,2.482,3.558,3.558,0,0,0,1.793-.379,1.106,1.106,0,0,0,.586-1.034v-.069a1.133,1.133,0,0,0-.138-.586,1.3,1.3,0,0,0-.552-.483,6.658,6.658,0,0,0-1.069-.448c-.448-.138-1.034-.31-1.724-.483-1.1-.241-2.1-.517-3.069-.828a9.487,9.487,0,0,1-2.448-1.172,5.486,5.486,0,0,1-1.655-1.793A5.134,5.134,0,0,1,48,546.289v-.069a6.21,6.21,0,0,1,.552-2.655,6.644,6.644,0,0,1,1.586-2.1,7.666,7.666,0,0,1,2.517-1.379,10.953,10.953,0,0,1,3.31-.483,15.3,15.3,0,0,1,4.724.69,12.054,12.054,0,0,1,3.758,2.034l-2.862,4.034a9.745,9.745,0,0,0-2.9-1.517,8.6,8.6,0,0,0-2.862-.483,2.7,2.7,0,0,0-1.552.379,1.11,1.11,0,0,0-.517.965v.069a1.191,1.191,0,0,0,.172.621,1.545,1.545,0,0,0,.552.483,6,6,0,0,0,1.1.448,16.829,16.829,0,0,0,1.793.448,21.909,21.909,0,0,1,3.172.9,9.893,9.893,0,0,1,2.413,1.241,4.755,4.755,0,0,1,1.517,1.793A5.5,5.5,0,0,1,65,554.184v.069a6.678,6.678,0,0,1-.586,2.827,6.244,6.244,0,0,1-1.689,2.1,6.942,6.942,0,0,1-2.62,1.31A12.263,12.263,0,0,1,56.654,560.942Z" transform="translate(-47 -539.6)"/><g transform="translate(20.722 0.414)"><path class="b" d="M107.1,540.8h5.689v7.689H120.1V540.8h5.689v20.584H120.1v-7.827h-7.309v7.827H107.1V540.8Z" transform="translate(-107.1 -540.8)"/></g><g transform="translate(42.443 0)"><path class="b" d="M181.133,561.011a11.558,11.558,0,0,1-4.413-.827,10.516,10.516,0,0,1-3.482-2.276,10.9,10.9,0,0,1-2.31-3.379,10.554,10.554,0,0,1-.827-4.137v-.069a10.6,10.6,0,0,1,.827-4.172,10.229,10.229,0,0,1,2.345-3.413,11.749,11.749,0,0,1,3.517-2.31,12.182,12.182,0,0,1,8.826,0A10.516,10.516,0,0,1,189.1,542.7a10.9,10.9,0,0,1,2.31,3.379,10.554,10.554,0,0,1,.827,4.137v.069a10.6,10.6,0,0,1-.827,4.172,10.229,10.229,0,0,1-2.345,3.413,11.749,11.749,0,0,1-3.517,2.31A11.559,11.559,0,0,1,181.133,561.011Zm.069-5.137a4.848,4.848,0,0,0,2.138-.448,5.112,5.112,0,0,0,1.621-1.207,5.584,5.584,0,0,0,1.069-1.758,6.143,6.143,0,0,0,.379-2.1v-.069a6.339,6.339,0,0,0-.379-2.138,5.509,5.509,0,0,0-1.069-1.793,4.892,4.892,0,0,0-1.655-1.207,5.322,5.322,0,0,0-4.275,0,4.892,4.892,0,0,0-1.655,1.207,5.582,5.582,0,0,0-1.069,1.758,6.142,6.142,0,0,0-.379,2.1v.069a5.994,5.994,0,0,0,.379,2.1,5.225,5.225,0,0,0,1.1,1.758,4.9,4.9,0,0,0,1.689,1.207A4.135,4.135,0,0,0,181.2,555.874Z" transform="translate(-170.1 -539.6)"/></g><g transform="translate(67.543 0.414)"><path class="b" d="M242.9,540.8h8.861a12.385,12.385,0,0,1,3.517.483,7.706,7.706,0,0,1,2.689,1.414,6.238,6.238,0,0,1,1.724,2.276,7.116,7.116,0,0,1,.586,3.034v.069a7.3,7.3,0,0,1-.655,3.206,6.844,6.844,0,0,1-1.827,2.345A8.206,8.206,0,0,1,255,555.04a12.561,12.561,0,0,1-3.517.483h-2.862v5.9h-5.689V540.8Zm8.447,10.24a3.63,3.63,0,0,0,2.379-.724,2.425,2.425,0,0,0,.9-1.965v-.069a2.357,2.357,0,0,0-.9-2,3.864,3.864,0,0,0-2.413-.69h-2.689v5.448Z" transform="translate(-242.9 -540.8)"/></g></g></g><g transform="translate(482.405 143.612)"><path class="a" d="M268.6,596.8h1.207v1.276H268.6Z" transform="translate(-268.6 -593.525)"/><path class="a" d="M274,587.3h1.172v1.862l1.483-1.862h1.414l-1.621,1.965,1.689,2.586h-1.414l-1.069-1.689-.448.517v1.172H274Z" transform="translate(-272.138 -587.3)"/><path class="a" d="M286.6,590.955l2.138-2.586h-2.069V587.3h3.724v.9l-2.138,2.586h2.138v1.069H286.6Z" transform="translate(-280.394 -587.3)"/></g></g></svg>