<svg xmlns="http://www.w3.org/2000/svg" viewBox="0 0 31.865 31.857"><defs><style>.a{fill:#003e93;}.b{fill:#ff9600;}</style></defs><g transform="translate(-0.001)"><path class="a" d="M31.866,13.547v-2.29h-4.9V8.179A3.288,3.288,0,0,0,23.687,4.9H20.609V0h-2.29V4.9H13.556V0h-2.29V4.9H8.179A3.288,3.288,0,0,0,4.9,8.179v3.078H0v2.29H4.9V18.31H0V20.6H4.9v3.078a3.288,3.288,0,0,0,3.279,3.279h3.078v4.9h2.29v-4.9H18.31v4.9H20.6v-4.9h3.078a3.288,3.288,0,0,0,3.279-3.279V20.6h4.9V18.31h-4.9V13.547Zm-7.19,10.14a.991.991,0,0,1-.989.989H8.179a.991.991,0,0,1-.989-.989V8.179a.991.991,0,0,1,.989-.989H23.687a.991.991,0,0,1,.989.989Z"/><g transform="translate(9.269 9.26)"><path class="b" d="M113.171,114.436H102.556a1.358,1.358,0,0,1-1.356-1.356V102.456a1.358,1.358,0,0,1,1.356-1.356h10.616a1.358,1.358,0,0,1,1.356,1.356v10.616A1.355,1.355,0,0,1,113.171,114.436Zm-10.616-12.081a.111.111,0,0,0-.11.11v10.616a.111.111,0,0,0,.11.11h10.616a.111.111,0,0,0,.11-.11V102.456a.111.111,0,0,0-.11-.11H102.556Z" transform="translate(-101.2 -101.1)"/></g></g></svg>