<svg xmlns="http://www.w3.org/2000/svg" viewBox="0 0 30.178 30.207"><defs><style>.a{fill:#ff9600;}.b{fill:#003e93;}</style></defs><g transform="translate(-1027.594 -182)"><path class="a" d="M174.118,61.771a8.145,8.145,0,0,1,6.635,6.635.855.855,0,0,0,.843.707c.054,0,.091-.009.145-.009a.856.856,0,0,0,.707-.988,9.833,9.833,0,0,0-8.022-8.022.861.861,0,0,0-.988.7.825.825,0,0,0,.68.979Zm0,0" transform="translate(868.89 128.337)"/><g transform="translate(0 -2.979)"><path class="b" d="M25.624,43.767l.018-.018h0c.009-.009.009-.018.018-.027a13.234,13.234,0,0,1,1-1.033l.082-.082c.326-.317.6-.58.834-.825a3.361,3.361,0,0,0,1.015-2.348,3.218,3.218,0,0,0-1.042-2.33l-3.472-3.49a3.17,3.17,0,0,0-2.3-1.051,3.3,3.3,0,0,0-2.33,1.042l-1.885,1.876c-.063-.036-.127-.063-.181-.091l-.163-.082a6.142,6.142,0,0,1-.607-.326,21.411,21.411,0,0,1-5.158-4.7,12.909,12.909,0,0,1-1.613-2.5c.426-.4.825-.8,1.215-1.2l.145-.145c.091-.091.181-.181.272-.281s.172-.172.254-.263a3.129,3.129,0,0,0,0-4.7L9.988,19.474c-.19-.19-.39-.39-.589-.6-.354-.363-.77-.789-1.2-1.178a3.227,3.227,0,0,0-2.284-1,3.319,3.319,0,0,0-2.311,1l-2.13,2.175A4.864,4.864,0,0,0,.035,22.955a11.362,11.362,0,0,0,.825,4.8A27.6,27.6,0,0,0,5.746,35.9c.6.716,1.224,1.4,1.867,2.04a29.808,29.808,0,0,0,8.131,5.783A15.757,15.757,0,0,0,21.4,45.389c.145.009.281.009.408.009A4.953,4.953,0,0,0,25.624,43.767Zm-3.816-.508a2.635,2.635,0,0,1-.272-.009,13.61,13.61,0,0,1-4.859-1.459A27.906,27.906,0,0,1,7.4,34.53a25.592,25.592,0,0,1-4.523-7.524,8.894,8.894,0,0,1-.7-3.861A2.7,2.7,0,0,1,2.99,21.4l2.157-2.157a1.241,1.241,0,0,1,.807-.39,1.142,1.142,0,0,1,.761.381l.027.027c.19.172.372.354.562.544s.372.372.571.58c.1.109.208.208.308.317l.3.3,1.731,1.731a1.216,1.216,0,0,1,.435.825,1.234,1.234,0,0,1-.435.825l-.181.181c-.118.127-.236.245-.363.363-.562.58-1.051,1.061-1.586,1.541l-.045.045a1.514,1.514,0,0,0-.372,1.65l.027.073a14.3,14.3,0,0,0,2.076,3.39l.018.018h0A23.206,23.206,0,0,0,15.454,36.8a7.767,7.767,0,0,0,.8.435l.009.009c.218.109.426.218.6.317l.018.009c.009,0,.009.009.018.009s.036.027.054.036a1.534,1.534,0,0,0,.725.181,1.573,1.573,0,0,0,1.124-.508l2.166-2.166a1.2,1.2,0,0,1,.8-.408,1.1,1.1,0,0,1,.752.39l.018.018,3.49,3.49a1.041,1.041,0,0,1,0,1.668c-.2.218-.408.417-.625.635l-.136.136a16.645,16.645,0,0,0-1.233,1.278,2.865,2.865,0,0,1-2.221.934Zm.009.227Z" transform="translate(1027.583 169.788)"/><path class="a" d="M190.289,13.288A16.227,16.227,0,0,0,177.073.072a.85.85,0,0,0-.979.7.861.861,0,0,0,.707.988,14.5,14.5,0,0,1,11.811,11.811.855.855,0,0,0,.843.707c.054,0,.091-.009.145-.009a.846.846,0,0,0,.689-.979Zm0,0" transform="translate(867.469 184.921)"/></g></g></svg>