<svg xmlns="http://www.w3.org/2000/svg" viewBox="0 0 26.286 41.838"><defs><style>.a{fill:#ff9600;}.b{fill:#003e93;}</style></defs><g transform="translate(0 0)"><path class="a" d="M85.924,90.392l-2.536.8.232-6.091-2.548,7.457L80.4,94.526l2.142-.672,2.513-.8-.278,5.825.116.023,2.49-7.214.683-1.98Z" transform="translate(-71.09 -75.245)"/><path class="b" d="M26.275,37.137v-.185c0-.174-.012-.347-.023-.51L25.233,4.887A5.018,5.018,0,0,0,20.2,0H6.091A5.021,5.021,0,0,0,1.042,4.887L.023,36.454a3.668,3.668,0,0,0-.023.51v.313H.012a4.877,4.877,0,0,0,4.864,4.563H21.411a4.886,4.886,0,0,0,4.864-4.563h.012ZM3.161,4.956a2.907,2.907,0,0,1,2.93-2.837H20.2a2.917,2.917,0,0,1,2.93,2.849l.9,27.9a4.814,4.814,0,0,0-2.617-.764H4.875a4.843,4.843,0,0,0-2.617.764Zm18.25,34.763H4.875a2.77,2.77,0,0,1-2.756-2.582l.012-.521a2.762,2.762,0,0,1,2.733-2.409H21.4a2.762,2.762,0,0,1,2.733,2.409l.012.521A2.741,2.741,0,0,1,21.411,39.719Z"/><g transform="translate(4.481 36.176)"><circle class="a" cx="0.787" cy="0.787" r="0.787"/></g><g transform="translate(6.543 36.176)"><circle class="a" cx="0.787" cy="0.787" r="0.787"/></g><g transform="translate(8.604 36.176)"><circle class="a" cx="0.787" cy="0.787" r="0.787"/></g><g transform="translate(10.677 36.176)"><circle class="a" cx="0.787" cy="0.787" r="0.787"/></g><g transform="translate(14.822 35.956)"><path class="a" d="M133.929,312.584h-4.887A1.038,1.038,0,0,1,128,311.542h0a1.038,1.038,0,0,1,1.042-1.042h4.9a1.038,1.038,0,0,1,1.042,1.042h0A1.055,1.055,0,0,1,133.929,312.584Z" transform="translate(-128 -310.5)"/></g></g></svg>