<svg xmlns="http://www.w3.org/2000/svg" viewBox="0 0 26.012 29.627">
  <defs>
    <style>
      .cls-1 {
        fill: #ff9600;
      }
    </style>
  </defs>
  <g id="Group_1672" data-name="Group 1672" transform="translate(12.652) rotate(30)">
    <g id="Group_652" data-name="Group 652" transform="translate(0 0)">
      <path id="Path_204" data-name="Path 204" class="cls-1" d="M13.728,25.3H1.684A1.688,1.688,0,0,1,0,23.62V7.022A2.7,2.7,0,0,1,.931,4.983L5.883.677a2.8,2.8,0,0,1,3.652,0l4.96,4.313a2.7,2.7,0,0,1,.931,2.039v16.6A1.7,1.7,0,0,1,13.728,25.3ZM1.776,23.528H13.642V7.022a.909.909,0,0,0-.32-.7L8.363,2.013a1.013,1.013,0,0,0-1.322,0L2.1,6.326a.933.933,0,0,0-.32.7Z"/>
    </g>
    <g id="Group_653" data-name="Group 653" transform="translate(4.249 13.616)">
      <path id="Path_205" data-name="Path 205" class="cls-1" d="M.405,2.643A1.515,1.515,0,0,1,0,1.528,1.763,1.763,0,0,1,.185.7,1.319,1.319,0,0,1,.7.178,1.524,1.524,0,0,1,1.449,0,1.524,1.524,0,0,1,2.2.178,1.235,1.235,0,0,1,2.714.7a1.663,1.663,0,0,1,.185.824,1.5,1.5,0,0,1-.405,1.116,1.414,1.414,0,0,1-1.044.405A1.436,1.436,0,0,1,.405,2.643ZM4.668.078H5.99L2.252,5.549H.931ZM1.7,2.039a1.04,1.04,0,0,0,.1-.519A1.04,1.04,0,0,0,1.7,1,.291.291,0,0,0,1.449.838.3.3,0,0,0,1.2,1a1.041,1.041,0,0,0-.1.519,1.041,1.041,0,0,0,.1.519.291.291,0,0,0,.249.163A.283.283,0,0,0,1.7,2.039ZM4.42,5.222a1.515,1.515,0,0,1-.405-1.116A1.714,1.714,0,0,1,4.2,3.29a1.319,1.319,0,0,1,.519-.526,1.524,1.524,0,0,1,.746-.178,1.524,1.524,0,0,1,.746.178,1.235,1.235,0,0,1,.519.526,1.653,1.653,0,0,1,.185.817,1.5,1.5,0,0,1-.4,1.116,1.414,1.414,0,0,1-1.044.4A1.414,1.414,0,0,1,4.42,5.222Zm1.293-.6a1.04,1.04,0,0,0,.1-.519,1.04,1.04,0,0,0-.1-.519.291.291,0,0,0-.249-.163.3.3,0,0,0-.249.163,1.04,1.04,0,0,0-.1.519,1.04,1.04,0,0,0,.1.519.271.271,0,0,0,.5,0Z"/>
    </g>
    <g id="Group_654" data-name="Group 654" transform="translate(6.871 4.137)">
      <ellipse id="Ellipse_25" data-name="Ellipse 25" class="cls-1" cx="0.838" cy="0.838" rx="0.838" ry="0.838"/>
    </g>
  </g>
</svg>
