<svg xmlns="http://www.w3.org/2000/svg" viewBox="0 0 20.234 33.193"><defs><style>.a{fill:#003e93;}.b{fill:#ff9600;}</style></defs><g transform="translate(0)"><g transform="translate(0 0)"><path class="a" d="M18.007,33.267H2.209A2.214,2.214,0,0,1,0,31.058V9.286A3.547,3.547,0,0,1,1.221,6.611L7.717.963a3.675,3.675,0,0,1,4.791,0L19.013,6.62A3.547,3.547,0,0,1,20.234,9.3V31.067A2.228,2.228,0,0,1,18.007,33.267ZM2.33,30.937H17.895V9.286a1.192,1.192,0,0,0-.419-.913L10.97,2.715a1.329,1.329,0,0,0-1.734,0L2.749,8.372a1.224,1.224,0,0,0-.419.913Z" transform="translate(0 -0.075)"/></g><g transform="translate(5.574 17.86)"><path class="b" d="M60.331,195.167A1.987,1.987,0,0,1,59.8,193.7a2.313,2.313,0,0,1,.242-1.081,1.731,1.731,0,0,1,.68-.69,2.172,2.172,0,0,1,1.957,0,1.62,1.62,0,0,1,.68.69A2.181,2.181,0,0,1,63.6,193.7a1.973,1.973,0,0,1-.531,1.463,1.854,1.854,0,0,1-1.37.531A1.884,1.884,0,0,1,60.331,195.167Zm5.592-3.365h1.734l-4.9,7.177H61.021Zm-3.9,2.572a1.839,1.839,0,0,0,0-1.361.382.382,0,0,0-.326-.214.393.393,0,0,0-.326.214,1.839,1.839,0,0,0,0,1.361.382.382,0,0,0,.326.214A.371.371,0,0,0,62.028,194.375Zm3.57,4.175a1.987,1.987,0,0,1-.531-1.463,2.248,2.248,0,0,1,.242-1.072,1.731,1.731,0,0,1,.68-.69,2.171,2.171,0,0,1,1.957,0,1.62,1.62,0,0,1,.68.69,2.168,2.168,0,0,1,.242,1.072,1.973,1.973,0,0,1-.531,1.463,2.032,2.032,0,0,1-2.74,0Zm1.7-.792a1.839,1.839,0,0,0,0-1.361.382.382,0,0,0-.326-.214.393.393,0,0,0-.326.214,1.839,1.839,0,0,0,0,1.361.355.355,0,0,0,.652,0Z" transform="translate(-59.8 -191.7)"/></g><g transform="translate(9.013 5.427)"><circle class="b" cx="1.1" cy="1.1" r="1.1"/></g></g></svg>