<svg xmlns="http://www.w3.org/2000/svg" viewBox="0 0 32.303 32.312">
  <defs>
    <style>
      .cls-1 {
        fill: #fff;
      }

      .cls-2 {
        fill: #ff9600;
      }
    </style>
  </defs>
  <g id="Group_1895" data-name="Group 1895" transform="translate(0.001)">
    <g id="Group_1893" data-name="Group 1893">
      <path id="Path_529" data-name="Path 529" class="cls-1" d="M23.15,32.311a9.244,9.244,0,0,1-4.352-.887,16.1,16.1,0,0,1-2.543.206A15.38,15.38,0,0,1,.878,16.254a17.028,17.028,0,0,1,.206-2.534A9.359,9.359,0,0,1,2.74,2.731a9.32,9.32,0,0,1,10.97-1.639A16.1,16.1,0,0,1,16.254.887,15.368,15.368,0,0,1,31.63,16.209a16.485,16.485,0,0,1-.215,2.57A9.8,9.8,0,0,1,32.3,23.1,9.074,9.074,0,0,1,23.15,32.311Zm-3.922-3.233.358.224a6.69,6.69,0,0,0,3.564.77A6.868,6.868,0,0,0,30.063,23.1a7.453,7.453,0,0,0-.8-3.618l-.188-.34.072-.385a14.822,14.822,0,0,0,.242-2.552A13.123,13.123,0,0,0,16.254,3.125a14.741,14.741,0,0,0-2.552.242l-.4.072-.358-.206a7.095,7.095,0,0,0-10.7,6.125,6.958,6.958,0,0,0,.976,3.564l.224.358-.072.412a14.822,14.822,0,0,0-.242,2.552A13.151,13.151,0,0,0,16.263,29.383a14.741,14.741,0,0,0,2.552-.242Z"/>
    </g>
    <g id="Group_1894" data-name="Group 1894" transform="translate(7.703 6.215)">
      <path id="Path_530" data-name="Path 530" class="cls-2" d="M94.838,89.5c-5.212,0-7.818-1.97-8.615-4.415s.958-3.134,1.487-3.188a2.006,2.006,0,0,1,2.078,1.119,4.89,4.89,0,0,0,3.994,3.4c2.5.269,4.146-.9,4.63-2.078.475-1.227-.43-2.875-4.254-3.4s-7.872-2.239-7.872-6.117S90.754,69.4,94.954,69.4s6.331,2.391,6.806,3.3c.582,1.173.376,3.09-1.012,3.4-1.433.376-2.185-.43-3.242-2.391-1.066-2.024-4.943-1.487-6.224-.376C90,74.5,90.324,76.152,95.751,77.164c5.373,1.066,7.4,2.982,7.4,6.063-.063,3.027-3.09,6.278-8.311,6.278" transform="translate(-86.018 -69.4)"/>
    </g>
  </g>
</svg>
