<svg xmlns="http://www.w3.org/2000/svg" viewBox="0 0 19.137 31.639"><defs><style>.a{fill:#003e93;}.b{fill:#ff9600;}</style></defs><g transform="translate(0 0)"><g transform="translate(0 0)"><path class="a" d="M16.631,31.638H2.506A2.511,2.511,0,0,1,0,29.133V2.506A2.511,2.511,0,0,1,2.506,0H16.631a2.511,2.511,0,0,1,2.506,2.506V29.133A2.511,2.511,0,0,1,16.631,31.638ZM2.506,2.183a.328.328,0,0,0-.323.323V29.133a.328.328,0,0,0,.323.323H16.631a.328.328,0,0,0,.323-.323V2.506a.328.328,0,0,0-.323-.323H2.506Z" transform="translate(0 0)"/></g><g transform="translate(7.298 27.232)"><rect class="b" width="4.409" height="1.31"/></g></g></svg>