<svg xmlns="http://www.w3.org/2000/svg" viewBox="0 0 14.389 18"><defs><style>.a{fill:#fff;}</style></defs><path class="a" d="M9.25,13.109H1.16A1.163,1.163,0,0,1,0,11.949V1.16A1.163,1.163,0,0,1,1.16,0H9.25a1.16,1.16,0,0,1,1.16,1.16V11.944A1.157,1.157,0,0,1,9.25,13.109ZM1.318,11.791H9.1V1.318H1.318Z"/><g transform="translate(3.98 4.891)"><path class="a" d="M76.818,98.6H75.5V93.96a1.16,1.16,0,0,1,1.16-1.16h2.825v1.318H76.818Z" transform="translate(-75.5 -92.8)"/></g><g transform="translate(3.98 4.891)"><path class="a" d="M84.75,105.909H76.66a1.16,1.16,0,0,1-1.16-1.16v-2.63h1.318V104.6h7.775V94.118H83V92.8H84.75a1.16,1.16,0,0,1,1.16,1.16v10.784A1.164,1.164,0,0,1,84.75,105.909Z" transform="translate(-75.5 -92.8)"/></g><path class="a" d="M79.579,32.949,78.33,31.7v.854H75.7v.791h2.63V34.2Z" transform="translate(-71.71 -30.029)"/><path class="a" d="M126.279,262.159h-2.625V261.3l-1.254,1.254,1.254,1.249v-.854h2.625Z" transform="translate(-115.948 -247.527)"/></svg>