<svg xmlns="http://www.w3.org/2000/svg" viewBox="0 0 27.271 42.354"><defs><style>.a{fill:#003e93;}.b{fill:#ff9600;}</style></defs><g transform="translate(0 0)"><path class="a" d="M27.259,9.169a2.939,2.939,0,0,0-2.97-2.9h-.755V3.724A3.728,3.728,0,0,0,19.81,0H7.436A3.726,3.726,0,0,0,3.724,3.724V6.273H2.97A2.939,2.939,0,0,0,0,9.169V19.525H3.724v19.1a3.728,3.728,0,0,0,3.724,3.724H19.822a3.728,3.728,0,0,0,3.724-3.724V19.513h3.724V9.169ZM6.818,3.724a.634.634,0,0,1,.631-.631H19.822a.634.634,0,0,1,.631.631V6.273H6.818ZM3.18,16.333V9.453h.544v6.88Zm16.63,22.9H7.436a.634.634,0,0,1-.631-.631V9.453H20.429V38.605A.608.608,0,0,1,19.81,39.236Zm4.269-22.9h-.544V9.453h.544Z"/><g transform="translate(12.423 7.869)"><rect class="b" width="1.72" height="7.857"/></g><g transform="translate(10.319 32.542)"><rect class="b" width="5.84" height="1.72"/></g><g transform="translate(10.319 26.64)"><rect class="b" width="5.84" height="1.72"/></g><g transform="translate(10.319 20.75)"><rect class="b" width="5.84" height="1.72"/></g><g transform="translate(10.319 14.86)"><rect class="b" width="5.84" height="1.72"/></g></g></svg>