<svg xmlns="http://www.w3.org/2000/svg" viewBox="0 0 33.051 19.293"><defs><style>.a{fill:#ff9600;}.b{fill:#003e93;}</style></defs><g transform="translate(-657.174 -116.854)"><g transform="translate(658.128 129.337)"><rect class="a" width="2.486" height="1.144"/><g transform="translate(28.834)"><rect class="a" width="2.311" height="1.144"/></g><g transform="translate(9.265)"><rect class="a" width="10.608" height="1.144"/></g></g><path class="b" d="M32.936,9.769,30.427,4.98A2.064,2.064,0,0,0,28.59,3.866H21.8V1.731A1.723,1.723,0,0,0,20.079,0H1.731A1.735,1.735,0,0,0,0,1.731V15.054a1.735,1.735,0,0,0,1.731,1.731h1.83a3.4,3.4,0,0,0,6.558,0h13a3.4,3.4,0,0,0,6.558,0h1.64a1.735,1.735,0,0,0,1.731-1.731V10.211A.91.91,0,0,0,32.936,9.769Zm-2.028.221H26.02c-.092,0-.191-.114-.191-.275V7.908c0-.16.1-.275.191-.275h3.645Zm-24.075,7.4A1.487,1.487,0,1,1,8.32,15.9,1.489,1.489,0,0,1,6.833,17.387Zm0-4.888a3.4,3.4,0,0,0-3.241,2.372H1.906V1.906h18V14.878h-9.83A3.4,3.4,0,0,0,6.833,12.5ZM26.4,17.387A1.487,1.487,0,1,1,27.888,15.9,1.489,1.489,0,0,1,26.4,17.387Zm3.233-2.509a3.4,3.4,0,0,0-6.482,0H21.81V5.773H28.6a.15.15,0,0,1,.145.092l.328.625H26.02a1.385,1.385,0,0,0-1.335,1.418V9.715a1.38,1.38,0,0,0,1.335,1.418h5.125v3.737h-1.51Z" transform="translate(657.175 116.853)"/></g></svg>