<svg xmlns="http://www.w3.org/2000/svg" viewBox="0 0 24.271 42.051"><defs><style>.a{fill:#003e93;}.b{fill:#ff9600;}</style></defs><path class="a" d="M22.378,9.7H20.764V1.754A1.759,1.759,0,0,0,19.01,0H5.261A1.75,1.75,0,0,0,3.519,1.754V9.7H1.893A1.893,1.893,0,0,0,0,11.59V30.344a4.626,4.626,0,0,0,4.622,4.622H7.4v4.668A2.414,2.414,0,0,0,9.813,42.05h4.645a2.414,2.414,0,0,0,2.415-2.415V34.966h2.775a4.626,4.626,0,0,0,4.622-4.622V11.59A1.893,1.893,0,0,0,22.378,9.7ZM6.422,2.9H17.86V9.7H6.422ZM13.97,39.147H10.3V34.966h3.681v4.181Zm7.4-8.8a1.722,1.722,0,0,1-1.719,1.719H4.622A1.722,1.722,0,0,1,2.9,30.344V12.6H21.368Z"/><path class="b" d="M68.5,122.224h-2.59v2.59H66.4v1.939L63.941,129.3V120.97h.906l-1.707-3.17-1.707,3.17h.906v9.755l-2.462-2.543v-2.288a1.593,1.593,0,1,0-2.276-1.44,1.568,1.568,0,0,0,.662,1.289V128.3a1.328,1.328,0,0,0,.372.929l3.159,3.275a1.522,1.522,0,0,0-.244.859,1.591,1.591,0,1,0,2.392-1.37v-.36l3.7-3.832a1.308,1.308,0,0,0,.372-.929v-2.055H68.5Z" transform="translate(-50.911 -104.12)"/><g transform="translate(8.361 5.156)"><rect class="b" width="1.614" height="2.183"/><g transform="translate(5.934)"><rect class="b" width="1.614" height="2.183"/></g></g></svg>