<svg xmlns="http://www.w3.org/2000/svg" viewBox="0 0 33.438 33.837">
  <defs>
    <style>
      .cls-1 {
        fill: #ff9600;
      }

      .cls-2 {
        fill: #fff;
      }
    </style>
  </defs>
  <g id="Group_52" data-name="Group 52" transform="translate(0 0)">
    <path id="Path_81" data-name="Path 81" class="cls-1" d="M111,103.86m0,0c-.106-.164-.366-.27-.78-.462s-2.4-1.175-2.764-1.31-.645-.2-.915.2-1.05,1.3-1.281,1.58-.472.3-.877.106a11.061,11.061,0,0,1-3.256-1.994A12.02,12.02,0,0,1,98.877,99.2a.591.591,0,0,1,.173-.819c.183-.183.4-.472.616-.713a2.614,2.614,0,0,0,.4-.665.769.769,0,0,0-.029-.713c-.106-.2-.915-2.177-1.252-2.986s-.674-.674-.915-.674-.5-.029-.78-.029a1.471,1.471,0,0,0-1.079.5A4.5,4.5,0,0,0,94.6,96.453a7.782,7.782,0,0,0,1.657,4.161c.2.26,2.8,4.46,6.916,6.068s4.123,1.069,4.864,1a4.1,4.1,0,0,0,2.735-1.907A3.3,3.3,0,0,0,111,103.86Z" transform="translate(-85.488 -83.681)"/>
    <g id="Group_51" data-name="Group 51" transform="translate(0)">
      <path id="Path_82" data-name="Path 82" class="cls-2" d="M0,33.837l2.851-9.459a16.472,16.472,0,0,1-2-9.882A16.362,16.362,0,0,1,17.1,0a16.352,16.352,0,1,1-7.8,30.726ZM9.565,28.1l.472.279A13.943,13.943,0,1,0,5.182,23.6l.279.462-1.811,6.02Z" transform="translate(0 0)"/>
    </g>
  </g>
</svg>
