<svg xmlns="http://www.w3.org/2000/svg" viewBox="0 0 30.227 30.207"><defs><style>.a{fill:#003e93;}.a,.b{fill-rule:evenodd;}.b{fill:#ff9600;}</style></defs><g transform="translate(-1043.416 -82)"><path class="a" d="M15.374,0A14.774,14.774,0,0,0,.541,14.713a14.626,14.626,0,0,0,2.125,7.6L0,30.207,8.218,27.6A14.873,14.873,0,0,0,30.227,14.713,14.8,14.8,0,0,0,15.374,0Zm0,27.08a12.531,12.531,0,0,1-6.855-2.045L3.728,26.559l1.563-4.59a12.354,12.354,0,0,1,10.1-19.624A12.434,12.434,0,0,1,27.862,14.713,12.465,12.465,0,0,1,15.374,27.08Z" transform="translate(1043.416 82)"/><path class="b" d="M55.333,50c-.1-.16-.341-.241-.7-.421s-2.145-1.062-2.486-1.183-.581-.18-.822.18S50.382,49.762,50.181,50c-.22.241-.421.261-.782.08A9.972,9.972,0,0,1,46.473,48.3a11.233,11.233,0,0,1-2.024-2.506c-.22-.361-.02-.561.16-.742.16-.16.361-.421.541-.621a2.66,2.66,0,0,0,.361-.6.618.618,0,0,0-.04-.621c-.08-.18-.822-1.964-1.122-2.686s-.6-.6-.822-.6-.461-.02-.7-.02a1.294,1.294,0,0,0-.962.441A4.023,4.023,0,0,0,40.6,43.348a6.953,6.953,0,0,0,1.483,3.728c.18.241,2.506,4.009,6.214,5.452,3.688,1.443,3.688.962,4.37.9a3.613,3.613,0,0,0,2.445-1.724,3.117,3.117,0,0,0,.22-1.7Z" transform="translate(1010.954 50.098)"/></g></svg>