<svg xmlns="http://www.w3.org/2000/svg" viewBox="0 0 48.34 39.662"><defs><style>.a{fill:#003e93;}.b{fill:#ff9600;}</style></defs><g transform="translate(0 0.081)"><g transform="translate(0 20.49)"><path class="a" d="M45.519,164.893H2.82A2.82,2.82,0,0,1,0,162.073V148.62a2.819,2.819,0,0,1,2.82-2.82h42.7a2.819,2.819,0,0,1,2.82,2.82v13.453A2.811,2.811,0,0,1,45.519,164.893ZM2.82,148.366a.253.253,0,0,0-.254.254v13.453a.253.253,0,0,0,.254.254h42.7a.253.253,0,0,0,.254-.254V148.62a.253.253,0,0,0-.254-.254Z" transform="translate(0 -145.8)"/></g><g transform="translate(31.079 24.298)"><path class="b" d="M226.125,184.25a5.725,5.725,0,1,1,5.725-5.725A5.729,5.729,0,0,1,226.125,184.25Zm0-9.335a3.624,3.624,0,1,0,3.624,3.624A3.623,3.623,0,0,0,226.125,174.915Z" transform="translate(-220.4 -172.8)"/><g transform="translate(4.146 4.16)"><circle class="b" cx="1.579" cy="1.579" r="1.579"/></g></g><g transform="translate(5.824 24.298)"><path class="b" d="M47.025,184.25a5.725,5.725,0,1,1,5.725-5.725A5.729,5.729,0,0,1,47.025,184.25Zm0-9.335a3.624,3.624,0,1,0,3.624,3.624A3.623,3.623,0,0,0,47.025,174.915Z" transform="translate(-41.3 -172.8)"/><g transform="translate(4.146 4.16)"><circle class="b" cx="1.579" cy="1.579" r="1.579"/></g></g><g transform="translate(7.008 -0.081)"><g transform="translate(9.109 12.604)"><path class="b" d="M129.121,93.867a10.123,10.123,0,0,0-9.434-2.143,11.289,11.289,0,0,0-4.033,2.1L114.3,92.316a13.3,13.3,0,0,1,4.837-2.552c2.693-.776,6.839-.959,11.253,2.51Z" transform="translate(-114.3 -89.298)"/></g><g transform="translate(4.019 6.223)"><path class="b" d="M103.188,50.5c-5.246-4.132-10.816-5.387-16.555-3.751a19.674,19.674,0,0,0-7.079,3.709L78.2,48.948A21.611,21.611,0,0,1,86.083,44.8c4.4-1.255,11.154-1.565,18.36,4.1Z" transform="translate(-78.2 -44.047)"/></g><g transform="translate(0 0)"><path class="b" d="M82.725,7.9C75.717,2.37,68.257.678,60.558,2.878a26.831,26.831,0,0,0-9.5,4.964L49.7,6.332A28.329,28.329,0,0,1,59.994.917,24.947,24.947,0,0,1,70.951.241,28.633,28.633,0,0,1,83.98,6.29Z" transform="translate(-49.7 0.081)"/></g></g></g></svg>