<svg xmlns="http://www.w3.org/2000/svg" viewBox="0 0 43.103 42.5"><defs><style>.a{fill:#003e93;}.b{fill:#ff9600;}</style></defs><path class="a" d="M19.455,9.733a9.727,9.727,0,1,0-15.249,8V36.972a5.528,5.528,0,0,0,11.056,0V17.73A9.742,9.742,0,0,0,19.455,9.733ZM12.308,36.972a2.575,2.575,0,1,1-5.15,0V19.112a9.818,9.818,0,0,0,2.575.354,9.286,9.286,0,0,0,2.575-.354ZM9.733,16.5a6.774,6.774,0,1,1,6.78-6.768A6.778,6.778,0,0,1,9.733,16.5Z"/><g transform="translate(36.216 2.681)"><rect class="b" width="1.772" height="15.072"/></g><path class="a" d="M228.716,0h-5.859a9.88,9.88,0,0,0-6.839,2.835A9.59,9.59,0,0,0,213.1,9.721V36.972a5.528,5.528,0,1,0,11.056,0V19.455h4.559a2.319,2.319,0,0,0,2.315-2.315V2.315A2.3,2.3,0,0,0,228.716,0ZM218.64,39.547a2.581,2.581,0,0,1-2.575-2.575V16.655a9.88,9.88,0,0,0,5.15,2.646V36.972A2.581,2.581,0,0,1,218.64,39.547ZM228.09,16.5h-5.126a6.844,6.844,0,0,1-6.9-6.78,6.852,6.852,0,0,1,6.9-6.78h5.126Z" transform="translate(-187.928)"/><g transform="translate(5.327 5.315)"><path class="b" d="M49.506,53.812a4.406,4.406,0,0,1,0-8.812v1.772a2.634,2.634,0,1,0,2.634,2.634h1.772A4.421,4.421,0,0,1,49.506,53.812Z" transform="translate(-45.1 -45)"/></g></svg>